<svg id="svg" version="1.1" xmlns="http://www.w3.org/2000/svg" xmlns:xlink="http://www.w3.org/1999/xlink" width="48" height="48" viewBox="0, 0, 400,400"><g id="svgg"><path id="path0" d="M6.250 0.812 C -2.196 4.631,-2.156 16.946,6.315 20.687 L 8.138 21.492 124.332 21.486 C 238.143 21.481,240.617 21.496,244.970 22.249 C 296.453 31.155,316.521 93.681,279.710 130.492 C 269.936 140.266,259.464 145.729,245.117 148.537 L 240.820 149.378 123.921 149.488 C 9.396 149.596,6.991 149.614,5.561 150.351 C -2.262 154.383,-1.802 166.320,6.314 169.905 L 8.135 170.710 144.790 170.712 C 232.066 170.714,282.786 170.855,285.156 171.101 C 347.428 177.582,389.821 236.794,376.005 297.995 C 367.370 336.250,336.330 367.352,298.195 375.960 C 286.897 378.511,300.587 378.289,147.266 378.402 C 19.099 378.496,8.266 378.554,6.678 379.151 C -2.053 382.435,-2.328 395.310,6.250 399.188 C 8.661 400.278,279.225 400.477,288.672 399.395 C 361.744 391.029,411.838 322.539,397.795 250.199 C 388.014 199.811,346.897 159.475,296.680 151.003 C 294.531 150.640,292.357 150.258,291.848 150.153 C 291.009 149.980,291.358 149.516,295.578 145.196 C 318.950 121.271,326.306 86.532,314.638 55.188 C 303.781 26.024,276.876 4.635,245.976 0.602 C 237.710 -0.477,8.657 -0.276,6.250 0.812 M16.406 174.023 C 17.135 174.775,17.819 175.391,17.927 175.391 C 18.034 175.391,17.526 174.775,16.797 174.023 C 16.068 173.271,15.384 172.656,15.276 172.656 C 15.169 172.656,15.677 173.271,16.406 174.023 M16.385 375.293 L 15.039 376.758 16.504 375.412 C 17.867 374.159,18.148 373.828,17.850 373.828 C 17.785 373.828,17.126 374.487,16.385 375.293 " stroke="none" fill="#040404" fill-rule="evenodd"></path><path id="path1" d="M13.281 22.020 C 20.337 23.956,27.037 33.995,31.044 48.633 L 32.327 53.320 73.292 53.516 L 114.258 53.711 116.486 54.805 C 124.441 58.712,124.441 69.804,116.486 73.711 L 114.258 74.805 74.902 74.911 L 35.547 75.018 35.547 85.556 L 35.547 96.094 101.934 96.094 C 148.235 96.094,168.920 96.222,170.300 96.518 C 180.040 98.607,181.740 111.666,172.863 116.207 L 170.563 117.383 101.445 117.578 L 32.327 117.773 31.044 122.461 C 27.307 136.113,20.877 146.261,14.368 148.782 L 12.305 149.581 126.563 149.475 L 240.820 149.369 245.117 148.533 C 259.433 145.745,269.933 140.269,279.710 130.492 C 316.517 93.685,296.453 31.155,244.981 22.251 C 239.437 21.292,9.795 21.063,13.281 22.020 M12.598 171.260 C 19.338 173.666,26.634 189.516,30.098 209.277 L 30.594 212.109 99.457 212.109 C 147.541 212.109,168.918 212.237,170.300 212.534 C 180.056 214.626,181.754 227.675,172.863 232.223 L 170.563 233.398 102.072 233.501 L 33.582 233.604 33.779 234.478 C 34.108 235.931,35.115 250.145,35.397 257.315 L 35.661 264.045 74.959 264.151 L 114.258 264.258 116.486 265.352 C 124.662 269.367,124.385 280.644,116.016 284.534 C 114.274 285.344,113.900 285.353,74.958 285.458 L 35.658 285.565 35.393 292.099 C 35.104 299.246,34.098 313.235,33.751 314.938 L 33.533 316.008 129.950 316.109 L 226.367 316.211 228.595 317.305 C 236.550 321.212,236.550 332.304,228.595 336.211 L 226.367 337.305 128.471 337.406 L 30.574 337.508 29.910 340.922 C 25.936 361.355,19.298 375.558,12.598 377.961 C 10.027 378.883,284.765 378.540,290.016 377.614 C 351.334 366.809,389.433 310.708,375.967 251.054 C 366.293 208.200,329.372 175.694,285.156 171.102 C 278.866 170.449,10.761 170.605,12.598 171.260 " stroke="none" fill="#fbfbfb" fill-rule="evenodd"></path></g></svg>